 <svg  version="1.0" xmlns="http://www.w3.org/2000/svg"  width="900.000000pt" height="900.000000pt" viewBox="0 0 900.000000 900.000000"  preserveAspectRatio="xMidYMid meet">  <g transform="translate(0.000000,900.000000) scale(0.100000,-0.100000)" fill="#000000" stroke="none"> <path d="M5940 7214 c-19 -2 -93 -8 -165 -15 -71 -6 -148 -15 -170 -21 -22 -6 -65 -14 -95 -18 -53 -7 -80 -13 -215 -47 -105 -27 -259 -74 -288 -89 -16 -8 -34 -14 -42 -14 -11 0 -65 -21 -190 -75 -39 -17 -296 -143 -315 -155 -8 -6 -44 -26 -80 -47 -85 -48 -309 -194 -385 -251 -81 -62 -242 -191 -279 -225 -17 -15 -59 -51 -93 -80 -77 -65 -416 -404 -510 -512 -38 -44 -90 -101 -114 -127 -24 -25 -69 -75 -99 -110 -30 -34 -76 -85 -101 -113 -38 -42 -153 -174 -259 -299 -14 -16 -30 -34 -37 -41 -7 -7 -43 -48 -80 -92 -37 -43 -86 -98 -108 -123 -22 -24 -62 -69 -90 -100 -246 -273 -606 -634 -795 -796 -328 -281 -634 -464 -943 -565 -37 -12 -70 -26 -73 -30 -3 -5 -20 -9 -37 -9 -18 -1 -43 -7 -57 -15 -14 -8 -37 -14 -51 -15 -52 0 -84 -63 -57 -113 6 -12 15 -35 19 -52 4 -16 17 -55 29 -85 11 -30 28 -73 36 -95 9 -22 18 -52 21 -67 3 -15 11 -33 19 -39 8 -6 14 -19 14 -28 2 -79 266 -145 585 -146 204 0 487 55 820 160 22 7 67 21 100 30 33 9 74 21 90 27 17 5 50 14 75 18 25 4 56 13 70 18 53 21 294 58 445 68 139 10 514 -47 665 -101 92 -32 211 -80 265 -105 33 -15 67 -31 75 -34 8 -3 29 -14 45 -24 17 -10 61 -35 98 -56 38 -20 98 -57 133 -82 36 -24 67 -44 69 -44 2 0 55 -35 117 -77 196 -133 420 -283 424 -283 1 0 31 -19 66 -43 35 -24 70 -46 78 -50 19 -10 42 -24 114 -70 32 -21 68 -43 80 -48 12 -5 35 -18 51 -29 17 -11 39 -24 50 -30 11 -5 47 -25 80 -44 90 -51 380 -194 493 -242 17 -8 47 -20 65 -28 75 -33 313 -122 362 -136 17 -5 62 -19 100 -33 130 -45 306 -93 485 -132 41 -10 100 -23 131 -31 30 -8 68 -14 83 -14 15 0 55 -7 89 -14 63 -15 169 -31 307 -47 41 -5 107 -13 145 -18 105 -15 189 -13 237 6 51 20 128 84 261 215 54 54 106 102 116 108 25 13 63 93 55 114 -12 31 -63 47 -182 57 -145 11 -263 26 -367 44 -44 8 -123 22 -175 30 -52 9 -118 23 -146 31 -28 8 -61 14 -74 14 -12 0 -43 6 -69 14 -25 8 -73 22 -106 31 -83 22 -164 45 -200 57 -16 5 -43 13 -60 18 -28 8 -51 15 -135 45 -75 27 -126 47 -153 61 -16 8 -36 14 -46 14 -9 0 -26 7 -37 15 -10 8 -24 15 -31 15 -23 0 -349 158 -433 209 -19 11 -44 25 -56 30 -49 22 -380 240 -416 275 -13 12 -50 42 -82 66 -57 43 -245 224 -331 320 -69 76 -164 209 -208 290 -11 19 -30 54 -43 77 -53 97 -134 313 -150 401 -3 20 -13 62 -20 92 -18 70 -19 220 -1 220 6 0 20 -17 29 -38 152 -336 310 -565 567 -823 175 -175 400 -352 546 -429 11 -6 34 -19 50 -30 17 -11 53 -31 80 -45 28 -14 57 -30 65 -35 8 -6 60 -31 115 -56 167 -77 192 -87 275 -119 25 -10 59 -23 75 -30 35 -15 61 -23 210 -71 61 -19 124 -40 140 -45 17 -6 49 -15 73 -20 23 -5 51 -13 61 -19 11 -5 29 -10 40 -10 11 0 40 -6 63 -14 24 -7 79 -21 123 -31 44 -9 102 -23 129 -31 26 -8 62 -14 79 -14 17 0 56 -6 86 -14 31 -8 103 -22 161 -31 58 -9 138 -23 179 -31 40 -8 95 -14 121 -14 27 0 60 -4 75 -10 14 -5 119 -17 232 -26 236 -20 275 -15 331 39 42 40 136 177 162 237 6 14 22 39 36 57 13 17 24 38 24 46 0 8 7 20 15 27 8 7 15 17 15 23 0 6 21 51 46 100 50 99 65 170 42 200 -17 23 -115 42 -263 51 -128 8 -259 27 -440 63 -71 14 -148 29 -170 33 -23 3 -46 9 -52 13 -6 4 -33 12 -60 17 -82 17 -294 82 -393 120 -30 12 -66 25 -80 29 -27 9 -101 42 -210 94 -127 61 -312 179 -399 254 -126 109 -301 302 -301 332 0 6 -4 11 -8 11 -5 0 -14 10 -21 23 -6 12 -20 36 -31 52 -39 61 -150 297 -150 319 0 8 -7 27 -15 42 -8 16 -15 39 -15 52 0 13 -5 32 -11 43 -22 42 -49 263 -49 406 0 141 14 243 45 344 8 26 15 52 15 59 0 7 6 26 14 43 7 18 28 68 46 112 19 44 39 87 45 95 7 8 15 22 19 30 56 121 256 319 421 416 111 64 223 110 312 125 29 5 64 14 78 19 43 16 359 12 440 -5 86 -19 167 -42 220 -63 40 -15 223 -103 260 -125 73 -44 259 -180 271 -198 10 -17 83 -49 112 -49 38 0 95 53 116 108 45 120 -15 374 -138 577 -145 241 -478 549 -776 718 -65 37 -237 121 -290 142 -25 9 -56 21 -68 26 -156 61 -357 110 -592 145 -91 13 -468 26 -540 18z"/> <path d="M2370 2288 c-19 -5 -53 -13 -75 -17 -77 -16 -260 -67 -276 -77 -6 -4 -25 -10 -43 -15 -17 -4 -76 -24 -131 -44 -55 -20 -116 -40 -135 -45 -19 -4 -48 -13 -65 -18 -30 -11 -89 -27 -195 -56 -111 -29 -309 -66 -405 -75 -103 -10 -175 -53 -175 -105 0 -23 223 -293 374 -452 116 -123 137 -136 202 -125 27 5 78 14 113 21 35 6 72 15 82 20 10 6 30 10 45 10 15 0 55 7 88 16 34 8 86 21 116 29 30 7 75 19 100 26 25 7 63 15 85 19 22 5 54 12 70 18 37 13 125 30 225 44 153 21 399 -2 508 -48 18 -8 39 -14 47 -14 8 0 31 -7 52 -16 21 -9 52 -23 68 -30 65 -27 172 -77 210 -97 22 -12 65 -34 95 -50 30 -16 69 -37 85 -47 32 -20 55 -33 125 -72 25 -13 64 -36 88 -51 23 -15 59 -37 80 -48 20 -11 51 -29 67 -40 17 -10 37 -22 45 -26 8 -4 59 -33 113 -65 54 -32 101 -58 103 -58 2 0 21 -11 42 -23 100 -64 522 -277 547 -277 7 0 18 -6 24 -14 6 -8 22 -16 34 -19 12 -3 83 -30 157 -61 74 -31 141 -56 148 -56 8 0 26 -6 40 -14 15 -8 74 -28 132 -46 58 -18 120 -39 138 -46 18 -8 42 -14 53 -14 12 0 42 -7 68 -15 143 -45 281 -57 363 -31 24 7 72 21 108 31 36 9 99 28 140 42 41 13 90 28 109 33 18 5 38 13 44 19 6 6 19 11 28 11 9 0 46 14 80 31 35 17 80 37 99 46 19 9 42 20 50 24 8 4 51 26 95 49 130 65 169 89 192 118 25 30 29 65 11 79 -14 11 -121 29 -233 38 -102 10 -320 43 -350 55 -14 6 -40 10 -57 10 -17 0 -54 6 -82 14 -28 8 -82 22 -121 31 -38 9 -92 23 -120 31 -27 8 -75 22 -105 31 -30 8 -66 20 -80 26 -14 5 -38 13 -55 18 -33 9 -176 60 -215 76 -14 6 -65 28 -115 48 -148 61 -455 208 -550 264 -16 10 -57 32 -90 50 -57 31 -215 126 -273 163 -15 10 -34 21 -42 25 -8 4 -26 14 -40 24 -39 27 -234 153 -245 159 -5 3 -57 37 -115 75 -58 39 -113 75 -122 80 -9 6 -48 29 -85 53 -37 24 -75 47 -83 52 -105 67 -348 190 -372 190 -8 0 -18 4 -24 9 -12 13 -223 81 -249 81 -11 0 -42 7 -69 15 -57 17 -436 20 -496 3z"/> <path d="M2249 900 c-223 -24 -279 -44 -279 -100 0 -35 14 -50 88 -96 35 -21 75 -47 90 -56 15 -10 36 -22 47 -28 11 -6 34 -19 50 -29 90 -57 376 -199 505 -251 30 -12 63 -26 72 -31 20 -10 73 -30 173 -64 39 -13 81 -28 95 -33 76 -29 383 -113 485 -132 171 -32 290 -51 350 -56 39 -3 84 -9 100 -14 49 -13 284 -13 301 1 8 6 14 29 14 50 0 42 2 41 -125 95 -152 65 -520 249 -630 315 -16 10 -52 30 -80 44 -27 14 -66 35 -85 47 -60 35 -191 104 -300 158 -248 122 -360 159 -550 179 -58 7 -116 13 -130 15 -14 2 -100 -4 -191 -14z"/> </g> </svg> 